<svg xmlns="http://www.w3.org/2000/svg" version="1.1" xmlns:xlink="http://www.w3.org/1999/xlink" xmlns:svgjs="http://svgjs.dev/svgjs" width="128" height="128"><svg width="128" height="128" viewBox="0 0 128 128" fill="none" xmlns="http://www.w3.org/2000/svg">
<path fill-rule="evenodd" clip-rule="evenodd" d="M40.5065 1.943C-13.549 12.3986 -3.05068 62.4366 12.6545 87.7883C16.0984 93.3476 19.5858 98.2954 23.0984 102.653C27.9767 91.2981 33.7561 81.1628 38.3152 74.7755C41.8282 69.8538 45.5515 66.2236 49.1059 63.5837C42.2651 63.6423 35.779 63.939 30.7289 64.6441C16.1969 66.6729 17.2195 49.3617 21.1263 38.9064C25.3491 27.6056 31.9301 14.4816 40.5065 1.943ZM95.3105 113.782C77.3599 131.797 55.4852 133.539 33.8541 114.122C35.1302 110.563 36.4379 107.466 37.541 105.208C43.4859 93.0348 57.3574 71.3942 64.6234 71.3942C71.8894 71.3942 84.4398 88.9772 91.7058 105.208C92.8191 107.695 94.077 110.616 95.3105 113.782ZM105.228 101.579C108.032 97.4282 110.695 92.823 113.196 87.7883C127.309 59.3862 153.916 -1.57593e-05 62.9254 0C60.7223 3.81586e-07 58.5892 0.0462763 56.5245 0.136861C43.6921 16.6007 32.465 37.9455 41.9582 45.7085C56.7959 57.842 91.4992 58.5182 92.8203 47.7373C94.6311 32.9599 80.9304 36.2407 73.6644 40.9746C66.3984 45.7085 61.114 48.4136 64.4168 40.9746C67.7195 33.5357 78.2882 17.3052 88.1964 18.6577C98.1046 20.0103 103.389 32.1831 102.068 47.7373C100.747 63.2915 96.7835 65.3204 84.2332 64.6441C83.718 64.6163 83.1795 64.5874 82.6194 64.5577C85.4724 67.0989 88.3813 70.4352 91.1589 74.7755C95.2327 81.1415 100.575 90.7854 105.228 101.579Z" fill="#00A675"></path>
</svg><style>@media (prefers-color-scheme: light) { :root { filter: none; } }
@media (prefers-color-scheme: dark) { :root { filter: none; } }
</style></svg>